<?xml version="1.0" encoding="UTF-8"?> <svg xmlns="http://www.w3.org/2000/svg" xmlns:xlink="http://www.w3.org/1999/xlink" version="1.1" id="Layer_1" x="0px" y="0px" viewBox="0 0 862.2 147.9" style="enable-background:new 0 0 862.2 147.9;" xml:space="preserve"> <style type="text/css"> .st0{fill:#1657E5;} </style> <g id="Artwork_28_00000047764581391456418930000003627320700474674822_"> <g> <rect x="337.1" y="38.2" class="st0" width="14.6" height="72.1"></rect> <polygon class="st0" points="636.6,38.2 636.6,67.5 610.2,67.5 610.2,38.2 595.6,38.2 595.6,110.2 610.2,110.2 610.2,81.9 636.6,81.9 636.6,110.2 651.2,110.2 651.2,38.2 "></polygon> <rect x="696" y="38.2" class="st0" width="14.6" height="72.1"></rect> <g> <path class="st0" d="M784.7,38.2h-27.5v72.1h14.6V88.6h12.9c14,0,25.3-11.1,25.3-24.9V63C810,49.3,798.7,38.2,784.7,38.2 M795.3,63.7c0,5.8-4.8,10.5-10.6,10.5h-12.9V52.6h12.9c5.9,0,10.6,4.7,10.6,10.5V63.7z"></path> <path class="st0" d="M426.9,38.2h-26.7l-0.8,72.1H414V88.6h10.8l10.5,22.1l16.7,0.1l-12.6-25.6c1.5-0.9,3-1.9,3.2-2.1 c6-4.8,9.5-11.8,9.5-19.4V63C452.2,49.3,440.9,38.2,426.9,38.2 M426.9,74.2H414V52.6h12.9c5.9,0,10.6,4.7,10.6,10.5v0.7 C437.6,69.5,432.8,74.2,426.9,74.2"></path> <path class="st0" d="M540.7,73.2c-2.1-1.6-4.5-2.9-7.1-3.8c-2.6-1-5.1-1.9-7.5-2.7c-1.6-0.5-3.1-1-4.5-1.6 c-1.3-0.5-2.5-1.1-3.5-1.7c-1-0.6-1.8-1.4-2.3-2.2c-0.5-0.8-0.8-1.9-0.8-3.2c0-1.5,0.3-2.7,1-3.6c0.7-0.9,1.5-1.7,2.4-2.3 c1-0.6,2.1-1,3.3-1.2c1.2-0.2,2.4-0.3,3.5-0.3c2.2,0,4.6,0.6,7,1.7c2.3,1.1,4.2,2.5,5.7,4.3l10.6-11.1c-3.1-2.8-6.7-4.9-10.7-6.3 c-4.1-1.5-8.3-2.2-12.2-2.2c-3.3,0-6.6,0.4-9.9,1.2c-3.2,0.8-6.2,2.1-8.8,3.9c-2.6,1.8-4.7,4.1-6.3,6.8s-2.4,6.1-2.4,10 c0,3.2,0.5,5.9,1.5,8.1s2.4,4.1,4.1,5.6c1.7,1.6,3.6,2.8,5.8,3.8c2.2,1,4.4,1.9,6.7,2.6c2.4,0.8,4.5,1.4,6.3,2.1 c1.8,0.6,3.4,1.4,4.7,2.1c1.3,0.8,2.2,1.7,2.9,2.6c0.7,1,1.1,2.2,1.1,3.6c0,1.4-0.3,2.7-0.8,3.7c-0.6,1-1.3,1.9-2.2,2.5 c-0.9,0.6-2,1.1-3.3,1.3c-1.2,0.3-2.5,0.4-3.8,0.4c-2.8,0-5.7-0.7-8.6-2.2c-2.8-1.4-5-3.1-6.8-5.2l-10.9,11.1 c3.1,3.1,7,5.6,11.6,7.3c4.7,1.8,9.6,2.6,14.7,2.6c3.4,0,6.8-0.5,10.1-1.4c3.2-0.9,6.2-2.4,8.7-4.3c2.5-1.9,4.5-4.4,6-7.3 c1.5-2.9,2.2-6.5,2.2-10.5c0-3.5-0.7-6.4-2.1-8.8C544.5,76.8,542.8,74.8,540.7,73.2"></path> <path class="st0" d="M278.9,110.2h16.5l-26.4-72.1H250l-26.4,72.1H240l5.6-15.8l27.7,0L278.9,110.2z M250.3,81.3l9.1-25.9l0,0.1 l0.4,1.1l8.8,24.7H250.3z"></path> </g> </g> </g> <g> <g> <path class="st0" d="M182.2,98.3l-10.5-10.5L98.2,14.3L14.4,98l29.8,29.8l0,0l0,0v0l0.2,0.2c13.1-15.1,32.4-24.8,54-24.8 c12.1,0,23.6,3,33.6,8.4c2.2,1.2,4.4,2.5,6.4,3.9c1,0.7,2.1,1.4,3.1,2.2c4,3,7.6,6.5,10.9,10.3l0,0v0L182.2,98.3z M98.3,48.6 c4.7,0,8.4,3.8,8.4,8.4c0,4.7-3.8,8.5-8.4,8.5c-4.7,0-8.4-3.8-8.4-8.5C89.8,52.4,93.6,48.6,98.3,48.6z M145.5,112.5 c-1.1-0.8-2.2-1.6-3.3-2.4c-2.3-1.5-4.6-3-7.1-4.3c-11.2-6-23.9-9.2-36.7-9.2c-10,0-19.8,1.9-28.9,5.6c18.1-13.2,40.4-21,64.5-21 c8.4,0,16.5,0.9,24.3,2.7l8.7,8.7l5.7,5.7l-20.2,20.2C150.3,116.3,148,114.3,145.5,112.5z"></path> </g> </g> <g> <path class="st0" d="M834.2,38c-5.9,0-10.6,4.7-10.6,10.6c0,5.9,4.7,10.6,10.6,10.6c5.9,0,10.6-4.7,10.6-10.6 C844.8,42.8,840,38,834.2,38z M834.2,57.8c-5.1,0-9.2-4.1-9.2-9.2s4.1-9.2,9.2-9.2c5.1,0,9.2,4.1,9.2,9.2 C843.4,53.7,839.3,57.8,834.2,57.8z"></path> <path class="st0" d="M837.8,46.7c0-1.1-0.4-2.9-3.3-2.9h-3.7v9.8h1.6v-4h1.7l2.3,3.9l0,0.1h1.8l-2.5-4.1 C837.1,49.1,837.8,48.2,837.8,46.7z M836.1,46.7c0,1-0.6,1.5-1.8,1.5h-1.9v-3.1h1.9C835.5,45.1,836.1,45.6,836.1,46.7z"></path> </g> </svg> 